<svg xmlns="http://www.w3.org/2000/svg" xmlns:xlink="http://www.w3.org/1999/xlink" width="859" zoomAndPan="magnify" viewBox="0 0 644.25 173.249993" height="231" preserveAspectRatio="xMidYMid meet" version="1.0"><path fill="#ffffff" d="M 89.28125 49.0625 C 89.503906 53.414062 90.617188 74.183594 91.753906 95.210938 C 92.894531 116.238281 93.894531 134.925781 93.980469 136.730469 C 94.109375 139.425781 94.324219 140.007812 95.183594 139.96875 C 95.757812 139.941406 102.476562 139.871094 110.117188 139.8125 L 124.007812 139.710938 L 125.433594 137.175781 C 126.214844 135.78125 131.214844 127.515625 136.542969 118.808594 C 142.328125 109.355469 148.101562 99.894531 153.867188 90.433594 L 169.691406 64.445312 C 174.195312 57.050781 179.132812 48.996094 180.664062 46.539062 C 182.195312 44.082031 183.449219 41.863281 183.449219 41.609375 C 183.449219 41.355469 177.96875 41.148438 171.273438 41.148438 C 162.257812 41.148438 158.941406 41.339844 158.492188 41.894531 C 158.15625 42.304688 156.140625 45.730469 154.007812 49.511719 C 151.878906 53.289062 147.726562 60.546875 144.78125 65.640625 C 141.835938 70.734375 138.75 76.109375 137.917969 77.589844 C 131.441406 89.117188 118.679688 110.910156 117.988281 111.617188 C 117.246094 112.378906 117.136719 112.226562 117.128906 110.421875 C 117.125 109.285156 116.589844 93.433594 115.9375 75.199219 C 115.289062 56.960938 114.753906 41.839844 114.753906 41.59375 C 114.75 41.347656 108.925781 41.148438 101.8125 41.148438 L 88.878906 41.148438 Z M 194.484375 60.105469 C 186.953125 72.199219 179.433594 84.300781 171.925781 96.40625 C 166.019531 105.933594 160.582031 114.671875 159.839844 115.820312 C 157.15625 119.996094 154.136719 124.875 150.515625 130.890625 C 148.488281 134.265625 146.417969 137.5 145.921875 138.078125 C 145.429688 138.65625 145.167969 139.273438 145.34375 139.449219 C 145.519531 139.625 151.375 139.769531 158.359375 139.769531 L 171.054688 139.769531 L 181.53125 121.496094 L 199.484375 121.339844 L 217.441406 121.179688 L 217.769531 123.132812 C 217.949219 124.203125 218.164062 128.394531 218.246094 132.449219 L 218.394531 139.8125 L 232.074219 139.777344 C 239.597656 139.761719 245.851562 139.644531 245.972656 139.523438 C 246.09375 139.398438 245.507812 130.859375 244.667969 120.542969 C 243.828125 110.222656 242.625 95.464844 241.996094 87.742188 C 241.28125 78.984375 240.582031 70.222656 239.890625 61.457031 C 239.363281 54.722656 238.746094 47.464844 238.519531 45.328125 L 238.109375 41.445312 L 222.207031 41.285156 L 206.300781 41.128906 Z M 278.816406 41.613281 C 278.65625 41.867188 277.953125 44.355469 277.253906 47.136719 C 276.550781 49.921875 275.195312 55.019531 274.238281 58.472656 C 273.28125 61.921875 271.015625 70.253906 269.199219 76.992188 C 267.382812 83.726562 265.089844 92.195312 264.109375 95.808594 C 259.367188 113.210938 252.804688 137.738281 252.636719 138.679688 C 252.460938 139.671875 254.109375 139.730469 281.679688 139.753906 L 310.914062 139.773438 L 312.53125 133.621094 C 313.375 130.398438 314.230469 127.179688 315.097656 123.960938 C 315.621094 122.027344 315.902344 120.210938 315.726562 119.925781 C 315.546875 119.640625 308.007812 119.40625 298.96875 119.40625 C 283.605469 119.40625 282.554688 119.339844 282.832031 118.359375 C 283.214844 117.003906 287.347656 101.640625 290.105469 91.328125 C 291.382812 86.546875 292.667969 81.765625 293.96875 76.992188 C 294.910156 73.539062 296.761719 66.683594 298.082031 61.757812 C 299.363281 56.976562 300.652344 52.199219 301.953125 47.421875 C 302.757812 44.46875 303.292969 41.847656 303.136719 41.597656 C 302.765625 41 279.1875 41.011719 278.816406 41.613281 M 345.34375 41.476562 C 345.34375 41.660156 344.25 45.894531 342.910156 50.886719 C 341.574219 55.878906 339.433594 63.863281 338.160156 68.628906 C 336.691406 74.105469 335.210938 79.582031 333.722656 85.054688 C 332.558594 89.328125 330.675781 96.316406 329.539062 100.589844 C 324.675781 118.855469 323.042969 124.898438 321.085938 131.878906 C 319.945312 135.945312 319.136719 139.394531 319.285156 139.542969 C 319.640625 139.902344 343.117188 139.753906 343.480469 139.390625 C 343.632812 139.238281 344.492188 136.359375 345.382812 132.992188 C 348.4375 121.503906 353.167969 104.175781 353.785156 102.230469 L 354.398438 100.292969 L 356.589844 103.171875 C 358.582031 105.785156 369.265625 119.566406 377.609375 130.289062 C 382.085938 136.039062 384.320312 137.714844 389.0625 138.882812 C 393.441406 139.964844 400.75 139.613281 401.253906 138.300781 C 401.40625 137.90625 400.621094 135.714844 399.507812 133.425781 C 392.9375 119.886719 378.800781 89.6875 378.808594 89.207031 C 378.820312 88.464844 380.347656 86.757812 391.214844 75.355469 C 396.226562 70.09375 401.03125 65.019531 401.890625 64.074219 C 403.304688 62.519531 405.988281 59.691406 418.035156 47.039062 C 420.113281 44.855469 421.8125 42.792969 421.8125 42.453125 C 421.8125 41.246094 415.625 40.980469 411.601562 42.011719 C 405.195312 43.652344 404.242188 44.308594 375.8125 66.71875 C 364.515625 75.625 360.28125 78.796875 360.28125 78.355469 C 360.28125 78.101562 361.085938 75.070312 362.074219 71.617188 C 366.210938 57.140625 370.230469 41.738281 369.945312 41.453125 C 369.527344 41.035156 345.34375 41.058594 345.34375 41.476562 M 435.335938 41.609375 C 435.179688 41.863281 434.523438 44.078125 433.875 46.535156 C 433.226562 48.992188 431.152344 56.648438 429.269531 63.550781 C 427.558594 69.820312 425.859375 76.089844 424.167969 82.367188 C 420.984375 94.21875 417.785156 106.070312 414.570312 117.914062 C 413.289062 122.636719 412.027344 127.367188 410.785156 132.101562 L 408.789062 139.71875 L 433.5 139.71875 L 435.515625 132.101562 C 436.625 127.914062 438.277344 121.796875 439.183594 118.511719 C 441.214844 111.132812 443.410156 103 450.789062 75.496094 C 453.964844 63.667969 457.316406 51.300781 458.238281 48.015625 C 459.160156 44.730469 459.792969 41.839844 459.648438 41.59375 C 459.289062 41 435.707031 41.011719 435.335938 41.609375 M 475.355469 44.269531 C 474.398438 47.582031 466.449219 77.023438 463.621094 87.742188 C 461.109375 97.253906 455.515625 117.925781 452.5 128.84375 C 451.019531 134.199219 449.898438 138.847656 450.007812 139.175781 C 450.332031 140.144531 473.988281 139.976562 474.476562 139.003906 C 474.691406 138.574219 476.226562 133.117188 477.882812 126.875 L 483.359375 106.261719 C 484.710938 101.171875 486.578125 94.316406 487.507812 91.03125 C 488.433594 87.742188 489.359375 84.316406 489.566406 83.414062 C 489.769531 82.507812 490.152344 81.769531 490.414062 81.769531 C 490.675781 81.769531 493.257812 88.960938 496.152344 97.75 L 505.707031 126.777344 L 510.003906 139.824219 L 521.550781 139.789062 C 527.898438 139.769531 533.164062 139.675781 533.25 139.585938 C 533.335938 139.496094 534.257812 136.191406 535.300781 132.25 C 536.34375 128.308594 538.773438 119.300781 540.703125 112.238281 C 542.628906 105.171875 545.046875 96.167969 546.078125 92.222656 C 547.109375 88.28125 548.320312 83.710938 548.777344 82.070312 C 551.179688 73.316406 553.554688 64.554688 555.890625 55.78125 C 557.027344 51.511719 558.363281 46.679688 558.867188 45.042969 C 559.367188 43.40625 559.5625 41.855469 559.304688 41.59375 C 559.042969 41.332031 553.496094 41.195312 546.972656 41.28125 L 535.117188 41.445312 L 534.667969 42.9375 C 534.101562 44.824219 532 52.546875 525.363281 77.136719 C 522.460938 87.894531 519.902344 96.699219 519.675781 96.703125 C 519.453125 96.703125 519.09375 96.101562 518.878906 95.359375 C 518.664062 94.621094 515.703125 85.414062 512.296875 74.898438 C 508.890625 64.386719 505.066406 52.558594 503.796875 48.613281 L 501.488281 41.445312 L 488.878906 41.285156 L 476.265625 41.125 Z M 213.824219 66.238281 C 212.988281 67.589844 205.722656 80.03125 203.175781 84.472656 C 202.605469 85.464844 200.25 89.523438 197.941406 93.492188 C 195.632812 97.460938 193.46875 101.21875 193.132812 101.84375 C 192.542969 102.945312 192.898438 102.972656 204.796875 102.804688 L 217.070312 102.632812 L 216.703125 96.832031 C 216.5 93.640625 216.160156 86.054688 215.953125 79.976562 C 215.742188 73.898438 215.386719 67.984375 215.160156 66.835938 L 214.75 64.742188 Z M 213.824219 66.238281 " fill-opacity="1" fill-rule="evenodd"/></svg>